<svg width="111" height="41" viewBox="0 0 111 41" fill="none" xmlns="http://www.w3.org/2000/svg">
<g clip-path="url(#clip0_827_171)">
<path d="M67.3824 7.99658C67.3337 7.99658 67.3094 7.99658 67.2607 7.97179C67.3094 7.99658 67.3581 7.99658 67.3824 7.99658Z" fill="white"/>
<path d="M11.0077 28.4723C10.4244 29.6111 9.37965 30.1558 7.873 30.1558H6.68232V3.71351H7.873C9.40389 3.71351 10.4488 4.67932 11.0319 6.58555C11.6151 8.49209 11.9067 12.0078 11.9067 17.1081C11.8825 23.5453 11.5909 27.3333 11.0077 28.4723ZM6.63376 -0.000102768H0V33.8447H7.80017C11.8825 33.8447 14.7254 32.6069 16.3536 30.1558C17.9815 27.7046 18.7835 23.2234 18.7835 16.7614C18.7835 10.3985 17.9815 6.01635 16.3536 3.61466C14.7254 1.21298 11.4937 -0.000102768 6.63376 -0.000102768Z" fill="white"/>
<path d="M20.0713 0.0245924H26.3406V5.94189H20.0713V0.0245924Z" fill="white"/>
<path d="M20.0713 7.92258H26.3406V33.8447H20.0713V7.92258Z" fill="white"/>
<path d="M36.8622 19.2124C34.8697 17.4297 33.6788 16.2166 33.2902 15.5481C32.9015 14.8796 32.7069 14.2111 32.7069 13.4931C32.7069 12.899 32.8772 12.4532 33.2172 12.1313C33.5575 11.8095 33.9705 11.661 34.4807 11.661C35.0884 11.661 35.55 11.9086 35.8903 12.379C36.2303 12.8493 36.4006 13.4931 36.4006 14.2606H41.4062C41.4062 12.1313 40.7986 10.4725 39.608 9.30899C38.4174 8.14517 36.6922 7.57597 34.4324 7.57597C32.3182 7.57597 30.6173 8.14517 29.3294 9.25941C28.0415 10.3983 27.3854 11.9086 27.3854 13.815C27.3854 15.6471 27.6527 17.1821 28.1631 18.4201C28.6733 19.658 29.8883 21.1187 31.8079 22.8271C33.3145 24.1393 34.4081 25.1791 35.064 25.8971C35.72 26.6151 36.0603 27.2836 36.0603 27.9026C36.0603 28.5711 35.9146 29.0662 35.5987 29.4129C35.2827 29.7594 34.821 29.908 34.1891 29.908C33.5331 29.908 33.0472 29.6852 32.7069 29.2643C32.3669 28.8434 32.1966 28.1502 32.1966 27.2093H27.1182C27.1182 29.4871 27.7255 31.2203 28.9405 32.3591C30.1555 33.4981 31.9536 34.0674 34.3594 34.0674C36.5949 34.0674 38.3445 33.4485 39.6324 32.2355C40.9203 31.0221 41.5519 29.3138 41.5519 27.1103C41.5519 25.6991 41.2119 24.4117 40.5313 23.2728C39.851 22.1338 38.6361 20.7969 36.8622 19.2124Z" fill="white"/>
<path d="M109.979 23.2977C109.299 22.1589 108.084 20.7971 106.334 19.2373C104.342 17.4546 103.151 16.2415 102.762 15.573C102.373 14.9045 102.179 14.236 102.179 13.518C102.179 12.9239 102.349 12.4782 102.689 12.1564C103.03 11.8345 103.443 11.6859 103.953 11.6859C104.561 11.6859 105.022 11.9335 105.362 12.4039C105.703 12.8744 105.873 13.518 105.873 14.2856H110.878C110.878 12.1564 110.271 10.4975 109.08 9.33398C107.889 8.17017 106.164 7.60065 103.904 7.60065C101.79 7.60065 100.089 8.17017 98.8014 9.2844C97.5135 10.4232 96.8576 11.9335 96.8576 13.8399C96.8576 15.672 97.1249 17.2071 97.6352 18.445C98.1455 19.6829 99.3604 21.1437 101.28 22.8521C102.787 24.1642 103.88 25.2042 104.536 25.9222C105.192 26.6402 105.533 27.3086 105.533 27.9275C105.533 28.596 105.387 29.0911 105.047 29.4378C104.731 29.7844 104.269 29.9329 103.637 29.9329C102.981 29.9329 102.495 29.7101 102.155 29.2893C101.815 28.8684 101.645 28.1751 101.645 27.2343H96.5659C96.5659 29.5121 97.1735 31.2451 98.3884 32.3841C99.6034 33.5231 101.402 34.0923 103.807 34.0923C106.043 34.0923 107.792 33.4735 109.08 32.2601C110.368 31.0471 111 29.3388 111 27.1353C110.976 25.6993 110.635 24.4365 109.979 23.2977Z" fill="white"/>
<path d="M63.8346 21.3912C63.8346 23.3967 65.4384 25.0308 67.4066 25.0308C69.3748 25.0308 70.9787 23.3967 70.9787 21.3912C70.9787 19.3858 69.3748 17.7517 67.4066 17.7517C65.4141 17.7517 63.8346 19.3858 63.8346 21.3912ZM63.6646 21.3912C63.6646 19.2867 65.3411 17.5784 67.4066 17.5784C69.4721 17.5784 71.1487 19.2867 71.1487 21.3912C71.1487 23.4957 69.4721 25.2041 67.4066 25.2041C65.3411 25.2041 63.6646 23.4957 63.6646 21.3912Z" fill="white"/>
<path d="M67.99 21.3911C67.99 21.713 67.723 21.9854 67.407 21.9854C67.091 21.9854 66.8237 21.713 66.8237 21.3911C66.8237 21.0692 67.091 20.7969 67.407 20.7969C67.723 20.7969 67.99 21.0692 67.99 21.3911Z" fill="white"/>
<path d="M54.6737 27.4076H52.3168C52.2195 28.5218 52.0495 29.2398 51.7822 29.5864C51.5149 29.9329 51.1016 30.0816 50.543 30.0816C49.6437 30.0816 49.0607 29.5369 48.8174 28.4723C48.5504 27.4076 48.4288 24.8575 48.4288 20.8219C48.4288 17.3309 48.5504 14.9293 48.7691 13.5923C48.9877 12.2554 49.5707 11.5869 50.47 11.5869C51.0046 11.5869 51.3933 11.8097 51.6119 12.2802C51.8309 12.7505 51.9522 13.7657 51.9522 15.3502H54.698C55.3056 14.0628 56.0589 12.8744 57.0065 11.8345C56.7149 10.9184 56.2532 10.1262 55.6699 9.50719C54.455 8.21974 52.7055 7.57617 50.4456 7.57617C47.6025 7.57617 45.4643 8.6901 44.0548 10.9184C42.6455 13.1467 41.9409 16.4396 41.9409 20.8219C41.9409 25.2289 42.6212 28.5465 43.9821 30.7499C45.3427 32.9784 47.3352 34.0923 49.984 34.0923C52.3168 34.0923 54.0664 33.5476 55.2326 32.4584C55.8159 31.9137 56.2289 31.2451 56.5205 30.4034C55.7916 29.4873 55.184 28.4723 54.6737 27.4076Z" fill="white"/>
<path d="M89.3977 29.0414C89.1304 29.2642 88.8631 29.4129 88.5958 29.5119C88.3285 29.6109 87.9639 29.6604 87.5266 29.6604C86.9433 29.6604 86.506 29.4871 86.19 29.1406C85.8743 28.7939 85.6797 28.2244 85.607 27.4321C85.534 26.6151 85.4611 25.5753 85.4124 24.3373C85.364 23.0995 85.3397 21.7872 85.3397 20.4007C85.3397 19.5094 85.364 18.5191 85.4124 17.3554C85.4611 16.2166 85.534 15.1519 85.6314 14.1616C85.7284 13.196 85.9227 12.5523 86.263 12.2057C86.6033 11.859 87.1136 11.6857 87.7939 11.6857C88.0369 11.6857 88.3285 11.7352 88.6445 11.7848C88.9601 11.859 89.2274 11.9581 89.3977 12.0571V29.0414ZM81.3787 21.4158C81.3787 23.9413 80.747 26.2933 79.6048 28.3482C79.9938 29.8089 80.5527 30.9231 81.2817 31.7155C82.2779 32.7554 83.6628 33.2753 85.4367 33.2753C86.4816 33.2753 87.4052 33.1265 88.1825 32.8542C88.9601 32.5819 89.4948 32.2107 89.7621 31.7647C89.7864 32.0124 89.8107 32.2599 89.8107 32.4582C89.8351 32.6562 89.8351 32.8542 89.8351 33.0278C89.8351 34.3892 89.5434 35.4043 88.9358 36.0978C88.3285 36.7909 87.4052 37.1622 86.1416 37.1622C85.3154 37.1622 84.3918 37.0633 83.3955 36.8653C82.3993 36.667 81.5733 36.4442 80.9414 36.147L80.1638 39.6877C81.1114 40.1334 82.1563 40.4553 83.3229 40.678C84.4891 40.9009 85.6314 41 86.749 41C89.4704 41 91.6089 40.3066 93.2125 38.9202C94.792 37.5336 95.594 35.5779 95.594 33.0522V7.92237H89.3491V8.54146C88.7901 8.19473 88.2312 7.94716 87.6722 7.79874C87.1136 7.65001 86.4573 7.57595 85.704 7.57595C84.1731 7.57595 82.8852 8.04631 81.8406 9.01182C80.7714 9.97733 80.0181 11.3143 79.5565 12.9979C79.4835 13.295 79.3862 13.6416 79.3135 14.0626C80.6254 16.2166 81.3544 18.7172 81.3787 21.4158Z" fill="white"/>
<path d="M60.6519 21.391C60.6519 23.347 61.4535 25.0801 62.7171 26.3428L63.9806 24.9316C63.9806 24.9316 63.9806 24.9316 64.005 24.9563C63.0817 24.065 62.5227 22.8023 62.5227 21.391C62.5227 18.6429 64.7096 16.4146 67.407 16.4146C68.306 16.4146 69.1323 16.6622 69.8369 17.0831L70.7361 15.3994C69.7399 14.8301 68.622 14.5082 67.407 14.5082C63.6893 14.5082 60.6519 17.603 60.6519 21.391Z" fill="white"/>
<path d="M72.267 21.391C72.267 24.1393 70.0799 26.3676 67.407 26.3676C66.5808 26.3676 65.8275 26.1695 65.1472 25.7981L64.2236 27.4569C65.1715 27.9768 66.2648 28.2739 67.407 28.2739C71.1248 28.2739 74.1622 25.1791 74.1622 21.391C74.1622 19.5094 73.409 17.8011 72.2184 16.5632L70.9305 17.9744C71.7567 18.8657 72.267 20.0542 72.267 21.391Z" fill="white"/>
<path d="M58.5132 21.3911C58.5132 23.9661 59.5824 26.2933 61.2833 27.9521L62.5712 26.5409C61.2347 25.2535 60.4087 23.4214 60.4087 21.4159C60.4087 17.4793 63.5432 14.2855 67.4069 14.2855C68.6704 14.2855 69.8367 14.632 70.8573 15.2263L71.7806 13.5427C70.493 12.7999 69.0104 12.3791 67.4069 12.3791C62.4982 12.3295 58.5132 16.39 58.5132 21.3911Z" fill="white"/>
<path d="M74.3805 21.391C74.3805 25.3276 71.246 28.5215 67.3823 28.5215C66.1917 28.5215 65.0738 28.2243 64.0776 27.6797L63.1543 29.3633C64.4179 30.0565 65.8514 30.4526 67.3823 30.4526C72.2907 30.4526 76.276 26.3922 76.276 21.391C76.276 18.8903 75.2798 16.6127 73.6516 14.9785L72.3637 16.3898C73.6272 17.6772 74.3805 19.4351 74.3805 21.391Z" fill="white"/>
<path d="M76.5189 21.3912C76.5189 26.5162 72.4122 30.7005 67.3822 30.7005C65.8027 30.7005 64.3205 30.3043 63.0326 29.5864L62.085 31.2946C63.6645 32.1612 65.4624 32.6812 67.3822 32.6812C73.4815 32.6812 78.4141 27.6304 78.4141 21.4408C78.4141 18.2964 77.1506 15.4492 75.1094 13.4189L73.8215 14.8549C75.4983 16.4642 76.5189 18.8164 76.5189 21.3912Z" fill="white"/>
<path d="M56.3506 21.3911C56.3506 24.6098 57.6868 27.5066 59.801 29.5615L61.0889 28.1255C59.3394 26.4419 58.2458 24.0404 58.2458 21.3911C58.2458 16.2662 62.3525 12.082 67.3825 12.082C69.0104 12.082 70.5413 12.5276 71.8535 13.2951L72.7768 11.5868C71.1732 10.6708 69.3263 10.1508 67.3825 10.1508C61.3076 10.1261 56.3506 15.1769 56.3506 21.3911Z" fill="white"/>
<path d="M76.5674 11.7846L75.3039 13.1711C77.3937 15.2507 78.7059 18.1722 78.7059 21.3661C78.7059 27.7042 73.6516 32.854 67.4311 32.854C65.4626 32.854 63.6403 32.334 62.0365 31.4429L61.0889 33.1511C62.9597 34.1911 65.1226 34.8101 67.4067 34.8101C74.6722 34.8101 80.5771 28.7937 80.5771 21.3908C80.5528 17.6275 79.0219 14.2356 76.5674 11.7846Z" fill="white"/>
<path d="M56.1078 21.3908C56.1078 15.0527 61.1621 9.90308 67.3827 9.90308C69.3752 9.90308 71.2704 10.4476 72.8986 11.3885L73.7976 9.72956C71.951 8.6649 69.8369 8.04612 67.577 8.02133H67.3584C60.1172 8.02133 54.261 13.9633 54.188 21.3166V21.4405C54.188 25.2779 55.7919 28.7442 58.3433 31.1953L59.6556 29.7592C57.4684 27.6301 56.1078 24.6838 56.1078 21.3908Z" fill="white"/>
<path d="M109.007 5.96666C109.104 5.96666 109.202 5.94187 109.275 5.91708C109.347 5.89229 109.372 5.81792 109.372 5.69429C109.372 5.64472 109.372 5.59514 109.347 5.57035C109.323 5.54556 109.299 5.52109 109.25 5.4963C109.226 5.47151 109.177 5.47151 109.129 5.47151C109.08 5.47151 109.032 5.47151 109.007 5.47151H108.691V5.96666H109.007ZM109.007 5.19914C109.226 5.19914 109.42 5.24872 109.542 5.32278C109.663 5.39714 109.736 5.54556 109.736 5.74356C109.736 5.81793 109.712 5.89229 109.688 5.96666C109.663 6.01623 109.639 6.0655 109.591 6.11508C109.542 6.16465 109.493 6.18944 109.445 6.21423C109.396 6.23902 109.323 6.23902 109.25 6.26381L109.736 7.08089H109.347L108.91 6.2886H108.691V7.08089H108.327V5.19914H109.007ZM107.841 6.6598C107.914 6.80822 107.987 6.95695 108.108 7.08089C108.23 7.20453 108.351 7.27889 108.497 7.35326C108.643 7.42731 108.813 7.4521 108.983 7.4521C109.153 7.4521 109.323 7.42731 109.469 7.35326C109.615 7.27889 109.761 7.20453 109.858 7.08089C109.979 6.95695 110.052 6.83301 110.125 6.6598C110.198 6.51138 110.222 6.31307 110.222 6.13986C110.222 5.96665 110.198 5.76835 110.125 5.61993C110.052 5.47151 109.979 5.32278 109.858 5.19914C109.736 5.0752 109.615 5.00115 109.469 4.92678C109.323 4.85242 109.153 4.82763 108.983 4.82763C108.813 4.82763 108.643 4.85242 108.497 4.92678C108.351 5.00115 108.206 5.0752 108.108 5.19914C107.987 5.32278 107.914 5.44672 107.841 5.61993C107.768 5.76835 107.744 5.94187 107.744 6.13986C107.744 6.33786 107.768 6.48659 107.841 6.6598ZM107.428 5.44672C107.525 5.24872 107.647 5.07521 107.793 4.92678C107.938 4.77805 108.133 4.67921 108.327 4.58006C108.521 4.50569 108.74 4.45642 108.959 4.45642C109.177 4.45642 109.396 4.50569 109.591 4.58006C109.785 4.65442 109.979 4.77805 110.125 4.92678C110.271 5.07521 110.392 5.24872 110.49 5.44672C110.587 5.64472 110.635 5.89229 110.635 6.13986C110.635 6.38744 110.587 6.63501 110.49 6.83301C110.392 7.03101 110.271 7.20453 110.125 7.35326C109.979 7.50168 109.785 7.60052 109.591 7.67489C109.396 7.74925 109.177 7.79883 108.959 7.79883C108.74 7.79883 108.521 7.74925 108.327 7.67489C108.133 7.60052 107.938 7.47689 107.793 7.35326C107.647 7.22931 107.525 7.03101 107.428 6.83301C107.331 6.63501 107.282 6.38744 107.282 6.13986C107.307 5.8675 107.355 5.64472 107.428 5.44672Z" fill="white"/>
</g>
<defs>
<clipPath id="clip0_827_171">
<rect width="111" height="41" fill="white"/>
</clipPath>
</defs>
</svg>
