<svg width="19" height="19" viewBox="0 0 19 19" fill="none" xmlns="http://www.w3.org/2000/svg">
<g clip-path="url(#clip0_827_168)">
<path d="M17.4168 17.4168L15.8335 15.8335M9.10433 16.6252C10.092 16.6252 11.07 16.4306 11.9824 16.0527C12.8949 15.6747 13.724 15.1207 14.4224 14.4224C15.1207 13.724 15.6747 12.8949 16.0527 11.9824C16.4306 11.07 16.6252 10.092 16.6252 9.10433C16.6252 8.11668 16.4306 7.1387 16.0527 6.22623C15.6747 5.31376 15.1207 4.48467 14.4224 3.7863C13.724 3.08792 12.8949 2.53394 11.9824 2.15599C11.07 1.77803 10.092 1.5835 9.10433 1.5835C7.10968 1.5835 5.19673 2.37587 3.7863 3.7863C2.37587 5.19673 1.5835 7.10968 1.5835 9.10433C1.5835 11.099 2.37587 13.0119 3.7863 14.4224C5.19673 15.8328 7.10968 16.6252 9.10433 16.6252Z" stroke="#D0D0D0" stroke-width="1.5" stroke-linecap="round" stroke-linejoin="round"/>
</g>
<defs>
<clipPath id="clip0_827_168">
<rect width="19" height="19" fill="white"/>
</clipPath>
</defs>
</svg>
