<svg width="20" height="20" viewBox="0 0 20 20" fill="none" xmlns="http://www.w3.org/2000/svg">
<path d="M1.6665 1.66699H3.1165C4.0165 1.66699 4.72484 2.44199 4.64984 3.33366L3.95817 11.6337C3.93116 11.9552 3.97124 12.2789 4.07587 12.5841C4.18049 12.8894 4.34738 13.1696 4.56595 13.4069C4.78453 13.6443 5.05003 13.8337 5.34563 13.9631C5.64123 14.0925 5.96049 14.1591 6.28317 14.1587H15.1582C16.3582 14.1587 17.4082 13.1753 17.4998 11.9837L17.9498 5.73366C18.0498 4.35033 16.9998 3.22533 15.6082 3.22533H4.84984M7.49984 6.66699H17.4998M13.5415 18.3337C13.8178 18.3337 14.0827 18.2239 14.2781 18.0286C14.4734 17.8332 14.5832 17.5683 14.5832 17.292C14.5832 17.0157 14.4734 16.7508 14.2781 16.5554C14.0827 16.3601 13.8178 16.2503 13.5415 16.2503C13.2652 16.2503 13.0003 16.3601 12.8049 16.5554C12.6096 16.7508 12.4998 17.0157 12.4998 17.292C12.4998 17.5683 12.6096 17.8332 12.8049 18.0286C13.0003 18.2239 13.2652 18.3337 13.5415 18.3337ZM6.87484 18.3337C7.1511 18.3337 7.41606 18.2239 7.61141 18.0286C7.80676 17.8332 7.9165 17.5683 7.9165 17.292C7.9165 17.0157 7.80676 16.7508 7.61141 16.5554C7.41606 16.3601 7.1511 16.2503 6.87484 16.2503C6.59857 16.2503 6.33362 16.3601 6.13827 16.5554C5.94292 16.7508 5.83317 17.0157 5.83317 17.292C5.83317 17.5683 5.94292 17.8332 6.13827 18.0286C6.33362 18.2239 6.59857 18.3337 6.87484 18.3337Z" stroke="white" stroke-width="1.5" stroke-miterlimit="10" stroke-linecap="round" stroke-linejoin="round"/>
</svg>
